<svg width="14" height="18" viewBox="0 0 14 18" fill="none" xmlns="http://www.w3.org/2000/svg">
<path d="M7.83334 10.6667H4.50001C4.279 10.6667 4.06703 10.7545 3.91075 10.9107C3.75447 11.067 3.66668 11.279 3.66668 11.5C3.66668 11.721 3.75447 11.933 3.91075 12.0893C4.06703 12.2455 4.279 12.3333 4.50001 12.3333H7.83334C8.05436 12.3333 8.26632 12.2455 8.4226 12.0893C8.57888 11.933 8.66668 11.721 8.66668 11.5C8.66668 11.279 8.57888 11.067 8.4226 10.9107C8.26632 10.7545 8.05436 10.6667 7.83334 10.6667ZM11.1667 2.33334H10.1833C10.0114 1.84705 9.69328 1.42584 9.27256 1.12745C8.85184 0.829071 8.34913 0.668121 7.83334 0.666672H6.16668C5.65089 0.668121 5.14818 0.829071 4.72746 1.12745C4.30674 1.42584 3.9886 1.84705 3.81668 2.33334H2.83334C2.1703 2.33334 1.53442 2.59673 1.06558 3.06557C0.596736 3.53441 0.333344 4.1703 0.333344 4.83334V14.8333C0.333344 15.4964 0.596736 16.1323 1.06558 16.6011C1.53442 17.0699 2.1703 17.3333 2.83334 17.3333H11.1667C11.8297 17.3333 12.4656 17.0699 12.9344 16.6011C13.4033 16.1323 13.6667 15.4964 13.6667 14.8333V4.83334C13.6667 4.1703 13.4033 3.53441 12.9344 3.06557C12.4656 2.59673 11.8297 2.33334 11.1667 2.33334ZM5.33334 3.16667C5.33334 2.94566 5.42114 2.7337 5.57742 2.57742C5.7337 2.42114 5.94566 2.33334 6.16668 2.33334H7.83334C8.05436 2.33334 8.26632 2.42114 8.4226 2.57742C8.57888 2.7337 8.66668 2.94566 8.66668 3.16667V4.00001H5.33334V3.16667ZM12 14.8333C12 15.0544 11.9122 15.2663 11.7559 15.4226C11.5997 15.5789 11.3877 15.6667 11.1667 15.6667H2.83334C2.61233 15.6667 2.40037 15.5789 2.24409 15.4226C2.08781 15.2663 2.00001 15.0544 2.00001 14.8333V4.83334C2.00001 4.61232 2.08781 4.40036 2.24409 4.24408C2.40037 4.0878 2.61233 4.00001 2.83334 4.00001H3.66668V4.83334C3.66668 5.05435 3.75447 5.26631 3.91075 5.42259C4.06703 5.57887 4.279 5.66667 4.50001 5.66667H9.50001C9.72102 5.66667 9.93299 5.57887 10.0893 5.42259C10.2455 5.26631 10.3333 5.05435 10.3333 4.83334V4.00001H11.1667C11.3877 4.00001 11.5997 4.0878 11.7559 4.24408C11.9122 4.40036 12 4.61232 12 4.83334V14.8333ZM9.50001 7.33334H4.50001C4.279 7.33334 4.06703 7.42114 3.91075 7.57742C3.75447 7.7337 3.66668 7.94566 3.66668 8.16667C3.66668 8.38769 3.75447 8.59965 3.91075 8.75593C4.06703 8.91221 4.279 9 4.50001 9H9.50001C9.72102 9 9.93299 8.91221 10.0893 8.75593C10.2455 8.59965 10.3333 8.38769 10.3333 8.16667C10.3333 7.94566 10.2455 7.7337 10.0893 7.57742C9.93299 7.42114 9.72102 7.33334 9.50001 7.33334Z" fill="#36852B"/>
</svg>
