<svg width="17" height="16" viewBox="0 0 17 16" fill="none" xmlns="http://www.w3.org/2000/svg">
<path d="M6.77271 6.5H10.7727" stroke="#36852B" stroke-linecap="round" stroke-linejoin="round"/>
<path d="M6.77271 8.5H10.7727" stroke="#36852B" stroke-linecap="round" stroke-linejoin="round"/>
<path d="M10.129 12.2437L9.20395 13.7875C9.15865 13.8612 9.09523 13.922 9.01974 13.9642C8.94424 14.0064 8.8592 14.0286 8.77271 14.0286C8.68622 14.0286 8.60117 14.0064 8.52567 13.9642C8.45018 13.922 8.38676 13.8612 8.34145 13.7875L7.41646 12.2437C7.37295 12.1697 7.31086 12.1082 7.23632 12.0654C7.16178 12.0227 7.07738 12.0001 6.99146 12H3.27271C3.1401 12 3.01292 11.9473 2.91915 11.8536C2.82538 11.7598 2.77271 11.6326 2.77271 11.5V3.5C2.77271 3.36739 2.82538 3.24021 2.91915 3.14645C3.01292 3.05268 3.1401 3 3.27271 3H14.2727C14.4053 3 14.5325 3.05268 14.6263 3.14645C14.72 3.24021 14.7727 3.36739 14.7727 3.5V11.5C14.7727 11.6326 14.72 11.7598 14.6263 11.8536C14.5325 11.9473 14.4053 12 14.2727 12H10.554C10.468 12.0001 10.3836 12.0227 10.3091 12.0654C10.2346 12.1082 10.1725 12.1697 10.129 12.2437V12.2437Z" stroke="#36852B" stroke-linecap="round" stroke-linejoin="round"/>
</svg>
