<svg width="13" height="12" viewBox="0 0 13 12" fill="none" xmlns="http://www.w3.org/2000/svg">
<path fill-rule="evenodd" clip-rule="evenodd" d="M3.25076 0.433663L5.01854 2.71426L5.04202 2.7478C5.12588 2.86183 5.18626 2.98257 5.22316 3.11337C5.26006 3.25758 5.26677 3.4085 5.24328 3.56613C5.22316 3.7137 5.1762 3.86127 5.09904 3.98872L5.07892 4.01555C5.00512 4.13293 4.90784 4.23354 4.79044 4.31068L4.7636 4.33751L3.90487 4.96132C3.8512 5.08877 3.78411 5.36043 4.02227 5.69581C4.39797 6.24584 4.82398 6.74891 5.28689 7.20838V7.21509V7.20838C5.75651 7.67792 6.25967 8.10386 6.80309 8.47948C7.14189 8.71425 7.41695 8.64717 7.53771 8.59687L8.18511 7.71146H8.18176C8.27568 7.58401 8.38638 7.4834 8.51049 7.40291C8.63796 7.32577 8.78555 7.27546 8.9365 7.25199H8.95327C9.10087 7.23186 9.25182 7.24528 9.38935 7.27882L9.41618 7.28552C9.547 7.32577 9.67112 7.38949 9.78852 7.4834L12.0695 9.24751L12.1031 9.2844C12.2205 9.38166 12.311 9.48898 12.3781 9.61978C12.4486 9.76735 12.4922 9.92498 12.4989 10.0893C12.5056 10.257 12.4821 10.418 12.4184 10.5622V10.5689C12.3614 10.7165 12.2674 10.8473 12.14 10.9647C11.9957 11.1055 11.8146 11.243 11.5966 11.3738L11.5731 11.3872C11.3617 11.5113 11.1135 11.6287 10.825 11.726C9.57384 12.1385 8.23543 12.0647 6.95404 11.6421C5.5955 11.1894 4.30069 10.3409 3.22728 9.27099C2.16393 8.20447 1.3119 6.90319 0.859057 5.54489C0.433045 4.26708 0.362602 2.92891 0.775196 1.67793C0.872474 1.37273 0.996588 1.1212 1.1207 0.906552L1.12741 0.903198H1.1207C1.25488 0.6852 1.39576 0.507447 1.5333 0.359879C1.6507 0.232434 1.78488 0.141881 1.93247 0.0815117L1.96937 0.0680964C2.11026 0.0211429 2.2545 -0.00568766 2.41215 0.00101998C2.58323 0.00772763 2.73418 0.0513273 2.87842 0.125111L2.90525 0.138527L3.25076 0.433663ZM4.29398 3.2777L2.51949 1.00046H2.52285C2.50608 0.976982 2.48931 0.956859 2.47253 0.950152L2.45576 0.936737C2.43228 0.930029 2.40544 0.919967 2.36519 0.919967C2.34171 0.919967 2.31488 0.919967 2.29475 0.930029L2.28133 0.933383C2.2545 0.943444 2.23437 0.963567 2.21089 0.987044C2.11026 1.08766 2.01298 1.21846 1.9157 1.37944C1.81507 1.54042 1.7245 1.7383 1.6507 1.95965C1.29849 3.01611 1.36557 4.15305 1.73456 5.25311C2.13709 6.4739 2.90861 7.64438 3.88139 8.62034C4.85753 9.59966 6.02822 10.361 7.24252 10.7634C8.34612 11.129 9.48663 11.1994 10.5399 10.8573C10.758 10.7769 10.9391 10.693 11.1035 10.5957L11.1202 10.5823C11.2846 10.4884 11.4121 10.3912 11.5194 10.2838C11.5395 10.2704 11.5563 10.2469 11.5664 10.2201V10.2134C11.5731 10.1933 11.5831 10.1665 11.5764 10.1296C11.5764 10.096 11.5731 10.0692 11.5597 10.0424V10.039C11.5496 10.0222 11.5395 10.0122 11.5194 9.99206L11.4993 9.97194L9.22498 8.20782V8.20447C9.2015 8.19106 9.18137 8.18435 9.16125 8.17093H9.15454C9.1277 8.16422 9.10087 8.16087 9.07403 8.16422H9.06732C9.03713 8.17093 9.0103 8.18435 8.99017 8.19441V8.19106V8.19441C8.96669 8.20112 8.94992 8.22124 8.92979 8.24807V8.24136V8.24807L8.23543 9.20391C8.19517 9.26092 8.14486 9.31123 8.08448 9.34142C8.07777 9.34812 7.266 9.92498 6.27645 9.23074C5.67936 8.81822 5.13259 8.35875 4.63278 7.86238H4.63613C4.14303 7.36266 3.67677 6.81599 3.26418 6.22571C2.57652 5.23298 3.15348 4.42136 3.15348 4.418C3.18702 4.36434 3.22728 4.31739 3.27759 4.2805L4.22019 3.59296L4.25038 3.56949C4.27386 3.55943 4.28727 3.5393 4.30069 3.52253L4.31076 3.50912C4.32082 3.489 4.32753 3.45881 4.33088 3.43198C4.33759 3.4018 4.33424 3.37497 4.32753 3.34814C4.32417 3.33137 4.31411 3.3146 4.30405 3.29783L4.29398 3.2777ZM3.25076 0.437017V0.433663V0.437017ZM3.25076 0.433663V0.437017V0.433663Z" fill="#36852B"/>
</svg>
