<svg width="20" height="20" viewBox="0 0 20 20" fill="none" xmlns="http://www.w3.org/2000/svg">
<path d="M10 0.25C8.07164 0.25 6.18657 0.821828 4.58319 1.89317C2.97982 2.96451 1.73013 4.48726 0.992179 6.26884C0.254225 8.05042 0.061142 10.0108 0.437348 11.9021C0.813554 13.7934 1.74215 15.5307 3.10571 16.8943C4.46928 18.2579 6.20656 19.1865 8.09787 19.5627C9.98919 19.9389 11.9496 19.7458 13.7312 19.0078C15.5127 18.2699 17.0355 17.0202 18.1068 15.4168C19.1782 13.8134 19.75 11.9284 19.75 10C19.7473 7.41498 18.7192 4.93661 16.8913 3.10872C15.0634 1.28084 12.585 0.25273 10 0.25ZM10 18.25C8.36831 18.25 6.77326 17.7661 5.41655 16.8596C4.05984 15.9531 3.00242 14.6646 2.378 13.1571C1.75358 11.6496 1.5902 9.99085 1.90853 8.3905C2.22685 6.79016 3.01259 5.32015 4.16637 4.16637C5.32016 3.01259 6.79017 2.22685 8.39051 1.90852C9.99085 1.59019 11.6497 1.75357 13.1571 2.37799C14.6646 3.00242 15.9531 4.05984 16.8596 5.41655C17.7661 6.77325 18.25 8.3683 18.25 10C18.2475 12.1873 17.3775 14.2843 15.8309 15.8309C14.2843 17.3775 12.1873 18.2475 10 18.25ZM14.5 10C14.5 10.1989 14.421 10.3897 14.2803 10.5303C14.1397 10.671 13.9489 10.75 13.75 10.75H8.06032L9.78063 12.4694C9.85031 12.5391 9.90559 12.6218 9.9433 12.7128C9.98101 12.8039 10.0004 12.9015 10.0004 13C10.0004 13.0985 9.98101 13.1961 9.9433 13.2872C9.90559 13.3782 9.85031 13.4609 9.78063 13.5306C9.71095 13.6003 9.62822 13.6556 9.53718 13.6933C9.44613 13.731 9.34855 13.7504 9.25 13.7504C9.15146 13.7504 9.05388 13.731 8.96283 13.6933C8.87179 13.6556 8.78906 13.6003 8.71938 13.5306L5.71938 10.5306C5.64965 10.461 5.59433 10.3783 5.55658 10.2872C5.51884 10.1962 5.49941 10.0986 5.49941 10C5.49941 9.90144 5.51884 9.80384 5.55658 9.7128C5.59433 9.62175 5.64965 9.53903 5.71938 9.46937L8.71938 6.46937C8.86011 6.32864 9.05098 6.24958 9.25 6.24958C9.44903 6.24958 9.6399 6.32864 9.78063 6.46937C9.92136 6.61011 10.0004 6.80098 10.0004 7C10.0004 7.19902 9.92136 7.38989 9.78063 7.53063L8.06032 9.25H13.75C13.9489 9.25 14.1397 9.32902 14.2803 9.46967C14.421 9.61032 14.5 9.80109 14.5 10Z" fill="#36852B"/>
</svg>
