<svg width="14" height="14" viewBox="0 0 14 14" fill="none" xmlns="http://www.w3.org/2000/svg">
<path d="M6.06005 7.94011C6.33338 8.20011 6.33338 8.62678 6.06005 8.88678C5.80005 9.14678 5.37338 9.14678 5.11338 8.88678C4.48897 8.26143 4.13826 7.41383 4.13826 6.53011C4.13826 5.64639 4.48897 4.7988 5.11338 4.17345L7.47338 1.81345C8.09874 1.18903 8.94633 0.838318 9.83005 0.838318C10.7138 0.838318 11.5614 1.18903 12.1867 1.81345C12.8111 2.4388 13.1618 3.28639 13.1618 4.17011C13.1618 5.05383 12.8111 5.90143 12.1867 6.52678L11.1934 7.52011C11.2001 6.97345 11.1134 6.42678 10.9267 5.90678L11.2401 5.58678C11.4269 5.4019 11.5753 5.1818 11.6766 4.9392C11.7778 4.6966 11.83 4.43633 11.83 4.17345C11.83 3.91056 11.7778 3.65029 11.6766 3.40769C11.5753 3.16509 11.4269 2.94499 11.2401 2.76011C11.0552 2.57322 10.8351 2.42485 10.5925 2.32359C10.3499 2.22233 10.0896 2.17019 9.82672 2.17019C9.56384 2.17019 9.30356 2.22233 9.06096 2.32359C8.81837 2.42485 8.59826 2.57322 8.41338 2.76011L6.06005 5.11345C5.87316 5.29832 5.72479 5.51843 5.62353 5.76103C5.52227 6.00362 5.47013 6.2639 5.47013 6.52678C5.47013 6.78966 5.52227 7.04993 5.62353 7.29253C5.72479 7.53513 5.87316 7.75524 6.06005 7.94011ZM7.94005 5.11345C8.20005 4.85345 8.62672 4.85345 8.88672 5.11345C9.51113 5.7388 9.86185 6.58639 9.86185 7.47011C9.86185 8.35383 9.51113 9.20143 8.88672 9.82678L6.52672 12.1868C5.90137 12.8112 5.05377 13.1619 4.17005 13.1619C3.28633 13.1619 2.43874 12.8112 1.81338 12.1868C1.18897 11.5614 0.838257 10.7138 0.838257 9.83011C0.838257 8.94639 1.18897 8.0988 1.81338 7.47345L2.80672 6.48011C2.80005 7.02678 2.88672 7.57345 3.07338 8.10011L2.76005 8.41345C2.57316 8.59832 2.42479 8.81843 2.32353 9.06103C2.22227 9.30362 2.17013 9.5639 2.17013 9.82678C2.17013 10.0897 2.22227 10.3499 2.32353 10.5925C2.42479 10.8351 2.57316 11.0552 2.76005 11.2401C2.94493 11.427 3.16503 11.5754 3.40763 11.6766C3.65023 11.7779 3.9105 11.83 4.17338 11.83C4.43627 11.83 4.69654 11.7779 4.93914 11.6766C5.18174 11.5754 5.40184 11.427 5.58672 11.2401L7.94005 8.88678C8.12694 8.7019 8.27531 8.4818 8.37657 8.2392C8.47783 7.9966 8.52997 7.73633 8.52997 7.47345C8.52997 7.21056 8.47783 6.95029 8.37657 6.70769C8.27531 6.46509 8.12694 6.24499 7.94005 6.06011C7.8753 5.99944 7.82369 5.92613 7.78841 5.84472C7.75313 5.7633 7.73492 5.67551 7.73492 5.58678C7.73492 5.49805 7.75313 5.41026 7.78841 5.32884C7.82369 5.24743 7.8753 5.17412 7.94005 5.11345Z" fill="white"/>
</svg>
